<?xml version="1.0" standalone="no"?>
<!DOCTYPE svg PUBLIC "-//W3C//DTD SVG 20010904//EN"
 "http://www.w3.org/TR/2001/REC-SVG-20010904/DTD/svg10.dtd">
<svg version="1.0" xmlns="http://www.w3.org/2000/svg"
 width="958.000000pt" height="958.000000pt" viewBox="0 0 958.000000 958.000000"
 preserveAspectRatio="xMidYMid meet">

<g transform="translate(0.000000,958.000000) scale(0.100000,-0.100000)"
fill="#000" stroke="none">
<path d="M59 9563 c-89 -55 -70 -185 30 -213 24 -6 1597 -10 4561 -10 l4525 0
-4576 -4577 c-2518 -2518 -4582 -4588 -4588 -4600 -40 -80 30 -172 122 -160
38 5 279 244 4624 4589 l4583 4583 0 -4544 0 -4544 20 -32 c46 -74 164 -70
206 7 11 19 13 920 14 4726 0 4337 -1 4706 -16 4732 -9 15 -29 35 -44 44 -26
15 -395 16 -4732 16 -4330 -1 -4705 -2 -4729 -17z"/>
</g>
</svg>
